<svg width="100" height="100" viewBox="0 0 100 100" fill="none" xmlns="http://www.w3.org/2000/svg">
<path d="M99.108 91.108C99.108 95.5263 95.5263 99.108 91.108 99.108H8C3.58173 99.108 0 95.5263 0 91.108V8C0 3.58173 3.58172 0 8 0H91.108C95.5263 0 99.108 3.58172 99.108 8V91.108ZM68.5106 26.4C68.5121 26.3997 68.512 26.3975 68.5105 26.3973C68.3894 26.3833 68.3403 26.3713 68.2912 26.3713C66.8243 26.3713 65.3592 26.3678 63.8923 26.3803C63.7703 26.3803 63.6212 26.4665 63.5315 26.5581C61.8527 28.2925 60.183 30.034 58.5078 31.7738C54.6782 35.7489 50.8449 39.7222 47.0224 43.7027C46.9093 43.8212 46.8375 44.0205 46.8267 44.1874C46.7998 44.6399 46.816 45.0959 46.816 45.5502C46.816 45.8339 46.9554 45.9757 47.2343 45.9757C50.5792 45.9757 53.9241 45.9775 57.269 45.9757C58.7143 45.9757 60.095 46.254 61.4003 46.8824C64.273 48.2667 66.0289 50.5702 66.8225 53.6117C67.3611 55.6764 67.0685 57.8022 67.1152 59.9011C67.1152 59.9588 67.0244 59.9711 66.9667 59.9711C66.8889 59.9711 66.7978 59.9711 66.7058 59.9711C58.664 59.9711 50.6205 59.9765 42.5787 59.9603C41.988 59.9603 41.3812 59.8688 40.812 59.7108C39.6612 59.393 38.7581 58.6587 38.0022 57.7645C36.6628 56.1774 35.8692 54.3765 35.9841 52.2454C36.0685 50.6528 35.8638 49.0962 35.3 47.597C34.2174 44.7189 32.2693 42.6039 29.5798 41.1496C26.8795 39.6899 24.0175 39.2931 21.0425 39.9915C18.2973 40.6361 15.9812 42.067 14.227 44.279C11.5141 47.7011 10.8175 51.5721 12.3813 55.6315C14.1193 60.1435 17.4696 62.8833 22.3226 63.6392C24.0678 63.9103 25.7842 63.729 27.4504 63.1867C29.7252 62.4488 31.6068 61.1112 33.133 59.2763C33.6603 58.6445 34.6497 58.6909 35.1638 59.3334C35.9013 60.2551 36.7875 61.0277 37.7975 61.6822C39.4978 62.781 41.3273 63.3806 43.3867 63.3771C54.9295 63.3501 66.4724 63.3645 78.0134 63.3627C79.193 63.3627 80.3583 63.246 81.4912 62.8869C83.0389 62.395 84.337 61.5421 85.3316 60.2548C86.6154 58.594 87.1109 56.6496 87.1432 54.6081C87.2007 50.8503 87.163 47.0925 87.1702 43.3346C87.1702 43.103 87.1001 43.0366 86.8703 43.0384C85.9205 43.0491 84.9707 43.042 84.021 43.042C83.5972 43.042 83.5954 43.042 83.5954 43.4531C83.5954 46.8608 83.6062 50.2668 83.5883 53.6745C83.5847 54.3819 83.5308 55.1001 83.4051 55.7949C83.1412 57.2492 82.52 58.4989 81.1429 59.2314C80.2398 59.7108 79.2559 59.9208 78.2522 59.9388C75.8266 59.9801 73.401 59.9639 70.9735 59.9693C70.7938 59.9693 70.6557 59.807 70.6557 59.6272C70.6557 59.6101 70.6557 59.5931 70.6557 59.5761C70.6629 58.3678 70.6701 57.1613 70.6791 55.9529C70.6952 53.8074 70.2213 51.7714 69.1943 49.8897C66.686 45.2952 62.8097 42.8409 57.5706 42.6075C56.1379 42.5428 54.7015 42.5949 53.267 42.5931C53.0422 42.5931 52.9285 42.3225 53.0856 42.1619C58.254 36.88 63.359 31.6632 68.5099 26.4004C68.5101 26.4002 68.5103 26.4 68.5106 26.4ZM77.8734 35.3934C79.211 35.4239 80.3098 34.3862 80.3367 33.0665C80.3655 31.7253 79.3331 30.6175 78.0224 30.5852C76.6471 30.5511 75.5501 31.5745 75.507 32.9319C75.4657 34.2641 76.5196 35.3629 77.8716 35.3934H77.8734ZM27.2323 35.3907C27.2319 35.391 27.2322 35.3916 27.2326 35.3916C28.5983 35.3874 29.6552 34.3373 29.6516 32.9911C29.648 31.6374 28.5833 30.578 27.235 30.5834C25.8866 30.5906 24.8237 31.6607 24.8309 33.0037C24.838 34.3391 25.8985 35.3927 27.2319 35.3898C27.2323 35.3898 27.2326 35.3904 27.2323 35.3907ZM85.0803 35.3898C86.4394 35.3844 87.4915 34.3269 87.4844 32.9732C87.4772 31.6302 86.3981 30.5727 85.048 30.5816C83.6996 30.5906 82.6618 31.6571 82.6708 33.0234C82.6798 34.3646 83.7301 35.3952 85.0821 35.3898H85.0803ZM20.0819 35.3916C21.4106 35.3952 22.4896 34.3485 22.495 33.0522C22.5004 31.6589 21.4698 30.5906 20.1125 30.5834C18.7551 30.5763 17.6886 31.6266 17.6832 32.975C17.6779 34.3395 18.7174 35.388 20.0801 35.3916H20.0819ZM51.1519 70.8599C51.1519 70.9922 51.2549 71.1134 51.3871 71.11C51.8701 71.0974 52.3531 71.0633 52.8361 71.0705C53.5345 71.0813 54.2096 70.478 54.3747 69.6665C54.5974 68.5695 54.0462 67.5227 53.0389 67.3288C52.031 67.135 51.1519 68.0647 51.1519 69.0911V70.8599ZM68.7038 69.349C68.7036 69.3492 68.7038 69.3495 68.704 69.3493C68.7284 69.333 68.7514 69.3167 68.7757 69.3003C68.779 69.2981 68.7834 69.2984 68.7864 69.301C68.8696 69.3727 68.964 69.4348 69.0309 69.5192C69.381 69.9645 69.7383 70.408 70.0668 70.8694C70.2863 71.1788 70.5163 70.7414 70.2857 70.4403C70.0842 70.1774 69.8846 69.9171 69.6832 69.6545C69.5762 69.5149 69.6579 69.3207 69.8298 69.284C70.4852 69.1368 70.7491 68.7777 70.6935 68.108C70.6522 67.6089 70.2554 67.2731 69.6593 67.248C69.2876 67.2318 68.916 67.2426 68.5461 67.2265C68.3307 67.2175 68.2606 67.3001 68.2624 67.5137C68.2714 68.6179 68.2696 69.7221 68.2678 70.8263C68.2678 70.9825 68.2642 71.1118 68.4833 71.1136C68.6987 71.1154 68.7059 70.9933 68.7041 70.8335C68.6987 70.3381 68.7041 69.8445 68.7041 69.3492C68.7041 69.349 68.7039 69.3489 68.7038 69.349ZM46.0224 71.0723C46.0224 71.0733 46.0231 71.0743 46.0241 71.0746C46.3066 71.1565 46.4407 71.1094 46.4246 70.8012C46.403 70.3792 46.4299 69.9555 46.4138 69.5318C46.4048 69.311 46.4874 69.2445 46.6993 69.2499C47.1535 69.2625 47.6077 69.2661 48.062 69.2499C48.2918 69.2427 48.3439 69.3433 48.3385 69.5426C48.3295 69.9555 48.3331 70.3685 48.3331 70.7814C48.3331 71.1814 48.7407 70.7763 48.7407 70.3763V67.8775C48.7407 67.5246 48.3348 67.2254 48.3331 67.5784C48.3331 67.898 48.3259 68.2193 48.3349 68.5389C48.3421 68.7472 48.2703 68.8316 48.0512 68.8244C47.6185 68.81 47.184 68.8064 46.7513 68.8244C46.5 68.8352 46.4012 68.7634 46.4156 68.4976C46.4322 68.1475 46.4247 67.7961 46.4219 67.4455C46.421 67.3354 46.3317 67.2462 46.2217 67.2462C46.1116 67.2462 46.0224 67.3354 46.0224 67.4455V71.0723ZM65.8278 70.6791V70.0668C65.8278 69.5839 66.2193 69.1925 66.7022 69.1925H67.3854C67.491 69.1925 67.5766 69.1069 67.5766 69.0013C67.5766 68.8956 67.491 68.81 67.3854 68.81H66.406C66.0867 68.81 65.8278 68.5512 65.8278 68.2319C65.8278 67.9126 66.0867 67.6538 66.406 67.6538H66.8546C67.2706 67.6538 67.7035 67.2301 67.2875 67.2301C66.7309 67.2301 66.1743 67.2354 65.6178 67.2301C65.4346 67.2283 65.3628 67.2911 65.3646 67.4814C65.37 68.6054 65.37 69.7293 65.3646 70.8532C65.3646 71.0561 65.4436 71.1226 65.6411 71.119C66.1869 71.11 66.7345 71.1172 67.2803 71.1136C67.6937 71.1136 67.2495 70.6809 66.8361 70.6809H65.8296C65.8286 70.6809 65.8278 70.6801 65.8278 70.6791ZM34.5136 67.2265C34.4363 67.2265 34.3673 67.272 34.3342 67.3419C33.8587 68.347 33.3841 69.3533 32.9061 70.3634C32.7375 70.7197 33.0126 71.1592 33.1814 70.803C33.2173 70.7276 33.2694 70.6575 33.2874 70.5803C33.4382 69.9465 33.8386 69.8173 34.4598 69.8316C35.0433 69.8442 35.4455 69.9394 35.5963 70.5498C35.6196 70.6486 35.6932 70.7329 35.7238 70.8299C35.8434 71.2049 36.1632 70.7511 35.9966 70.3944C35.5004 69.332 35.0083 68.2807 34.5162 67.2281C34.5157 67.2271 34.5147 67.2265 34.5136 67.2265ZM55.5687 69.934C55.5687 69.5284 55.8975 69.1997 56.303 69.1997H57.102C57.2131 69.1997 57.3031 69.1096 57.3031 68.9986C57.3031 68.8875 57.2131 68.7975 57.102 68.7975H56.4199C55.9418 68.7975 55.5725 68.4096 55.5508 67.9321C55.54 67.7184 55.6154 67.6412 55.8344 67.6484C56.2779 67.6628 56.7214 67.661 57.1649 67.643C57.2331 67.6394 57.3354 67.5227 57.348 67.4455C57.3588 67.3845 57.2564 67.2444 57.2026 67.2426C57.163 67.2418 57.1235 67.241 57.084 67.2403C56.0133 67.2214 55.145 68.1018 55.145 69.1727V69.2571C55.145 70.2814 55.9754 71.1118 56.9997 71.1118C57.4201 71.1118 56.9654 70.6683 56.545 70.6683H56.303C55.8975 70.6683 55.5687 70.3395 55.5687 69.934ZM41.8735 67.8246C42.1165 67.5954 41.9346 67.1684 41.7133 67.4186C41.5015 67.6556 41.2537 67.8603 41.0185 68.0775C40.7855 68.2944 40.4063 68.125 40.4063 67.8067V67.4611C40.4063 67.3454 40.3125 67.2516 40.1968 67.2516C40.0879 67.2516 39.9918 67.3347 39.9869 67.4435C39.9864 67.455 39.9861 67.4664 39.9861 67.4778C39.9861 68.591 39.9861 69.7042 39.9843 70.8173C39.9843 70.9861 39.9825 71.1172 40.2177 71.1154C40.4476 71.1136 40.426 70.9664 40.426 70.8227C40.4281 70.2984 41.0724 70.0385 41.4305 70.4215C41.5767 70.5779 41.72 70.7341 41.8606 70.8927C42.1031 71.1685 42.3031 70.7332 42.0517 70.4654C41.7741 70.1696 41.4998 69.8772 41.2247 69.5844C40.9087 69.2478 40.925 68.7188 41.2609 68.4022C41.4641 68.2107 41.6677 68.0187 41.8735 67.8246ZM36.8836 67.257C36.8815 67.257 36.8797 67.2584 36.8791 67.2605C36.8668 67.3069 36.8531 67.3349 36.8531 67.3647C36.8513 68.5407 36.8477 69.7185 36.8513 70.8945C36.8513 71.0795 37.0739 71.2016 37.214 71.0849C37.275 71.0346 37.2912 70.9053 37.293 70.812C37.3012 70.2923 37.9384 70.0343 38.2927 70.4146C38.4363 70.5688 38.5763 70.7222 38.7132 70.8784C38.959 71.1603 39.1626 70.7255 38.9074 70.4521C38.6759 70.2043 38.4468 69.9589 38.2182 69.7141C37.8331 69.3017 37.8541 68.6553 38.2654 68.2691C38.5845 67.9695 38.9007 67.6728 39.2209 67.3736C39.265 67.3323 39.2615 67.2416 39.2015 67.2337C38.9214 67.2085 38.697 67.2821 38.4887 67.4994C38.3288 67.6664 38.1616 67.8264 37.9858 67.9895C37.7165 68.2393 37.2732 68.0441 37.2732 67.6767V67.6466C37.2732 67.4314 37.0988 67.257 36.8836 67.257ZM45.3733 68.7984C45.3728 68.7978 45.372 68.7975 45.3712 68.7975H44.1551C43.8388 68.7975 43.5824 68.541 43.5824 68.2247C43.5824 67.9084 43.8388 67.6521 44.1551 67.6525C44.465 67.6528 44.7706 67.6531 45.0762 67.652C45.458 67.65 45.0875 67.2588 44.7057 67.2588H44.3662C43.7062 67.2588 43.1712 67.7938 43.1712 68.4538V69.1844C43.1712 70.2479 44.0334 71.1192 45.0968 71.1044C45.1318 71.1039 45.1669 71.1034 45.2019 71.1028C45.2629 71.1028 45.3599 71.0112 45.3724 70.9484C45.3886 70.873 45.3563 70.7581 45.3024 70.7078C45.2557 70.6647 45.1462 70.6827 45.0636 70.6827C44.8218 70.6827 44.5796 70.6827 44.3374 70.6827C43.9254 70.6827 43.5914 70.3487 43.5914 69.9367C43.5914 69.5247 43.9254 69.1907 44.3374 69.1907H45.0974C45.2503 69.1907 45.3742 69.0667 45.3742 68.9138V68.8005C45.3742 68.7997 45.3739 68.7989 45.3733 68.7984ZM63.0523 70.1425C63.0522 70.1423 63.052 70.1422 63.052 70.142C62.6606 69.23 62.2872 68.4042 61.9533 67.564C61.7987 67.1764 61.4873 67.6076 61.6524 67.9909C62.0934 69.0147 62.5334 70.0357 62.9734 71.0566C62.9874 71.089 63.0193 71.1102 63.0546 71.1097C63.0882 71.1093 63.118 71.0886 63.1315 71.0578C63.5823 70.0215 64.0344 68.985 64.4897 67.9387C64.6411 67.5906 64.2935 67.1407 64.2065 67.5101C64.1832 67.6089 64.1257 67.6987 64.0844 67.7938C63.7508 68.5527 63.4171 69.3133 63.0548 70.142C63.0543 70.143 63.0531 70.1432 63.0523 70.1425ZM71.1872 67.2745C71.1872 67.2741 71.1877 67.2739 71.1879 67.2743C71.3384 67.5181 71.4586 67.7564 71.6181 67.9662C72.225 68.7634 72.5822 69.6288 72.4099 70.6539C72.3991 70.715 72.4135 70.7778 72.4081 70.8389C72.3955 71.0041 72.4242 71.1172 72.6343 71.1154C72.8516 71.1118 72.8534 70.9807 72.8516 70.8263C72.8498 70.4349 72.8659 70.0417 72.8462 69.6503C72.8318 69.3684 72.9 69.1296 73.0527 68.8944C73.3435 68.4438 73.62 67.9859 73.9001 67.5281C73.9783 67.3978 73.8929 67.2138 73.7419 67.2311C73.5819 67.2494 73.4697 67.3493 73.3866 67.5263C73.3166 67.6753 73.2196 67.81 73.1334 67.9518C72.8987 68.3336 72.3334 68.3408 72.0987 67.9589C72.0088 67.8126 71.9243 67.6669 71.8479 67.5173C71.6936 67.2176 71.4926 67.2013 71.1877 67.2748C71.1874 67.2749 71.1872 67.2747 71.1872 67.2745ZM31.5368 67.6376H32.1948C32.3014 67.6376 32.3878 67.5512 32.3878 67.4446C32.3878 67.338 32.3014 67.2516 32.1948 67.2516H30.4847C30.3707 67.2516 30.2782 67.344 30.2782 67.4581C30.2782 67.5721 30.3707 67.6646 30.4847 67.6646H30.6867C30.9123 67.6646 31.0951 67.8474 31.0951 68.073C31.0951 68.9981 31.0951 69.8972 31.0951 70.7976C31.0951 70.952 31.061 71.1118 31.3106 71.1154C31.5512 71.119 31.5404 70.9789 31.5386 70.8137C31.535 70.4223 31.5386 70.0291 31.5386 69.6377C31.5386 68.9901 31.5386 68.3443 31.5386 67.6394C31.5386 67.6384 31.5378 67.6376 31.5368 67.6376ZM58.3947 70.6809C58.3937 70.6809 58.3929 70.6801 58.3929 70.6791V67.4792C58.3929 67.3565 58.2934 67.257 58.1707 67.257H58.1306C58.0508 67.257 57.9656 67.31 57.9656 67.3898C57.9638 68.5551 57.9656 69.7203 57.9602 70.8856C57.9602 71.0651 58.0392 71.1154 58.2044 71.1136C58.6676 71.1082 59.1326 71.11 59.5959 71.1136C59.7521 71.1136 59.8795 71.1136 59.8778 70.8945C59.8778 70.6701 59.7359 70.6809 59.5887 70.6809C59.2099 70.6809 58.831 70.6809 58.3947 70.6809ZM60.393 71.0705C60.393 71.0696 60.3939 71.069 60.3948 71.0693C60.7058 71.1743 60.8042 71.0825 60.8006 70.7796C60.7898 69.7185 60.8006 68.6574 60.8042 67.5981C60.8042 67.5518 60.8042 67.5051 60.8042 67.4572C60.8042 67.3437 60.7122 67.2516 60.5986 67.2516C60.4851 67.2516 60.393 67.3436 60.393 67.4572V71.0705Z" fill="#FEDE01"/>
<path d="M68.5195 26.3983C68.5192 26.3983 68.5189 26.3985 68.5187 26.3987C63.3678 31.6614 58.2629 36.8783 53.0945 42.1602C52.9373 42.3208 53.0511 42.5914 53.2758 42.5914C54.7104 42.5914 56.1485 42.5411 57.5795 42.6057C62.8186 42.8409 66.6949 45.2935 69.2031 49.888C70.2301 51.7696 70.7041 53.8039 70.6879 55.9512C70.679 57.1595 70.6718 58.3661 70.6646 59.5744C70.6646 59.5914 70.6646 59.6084 70.6646 59.6254C70.6646 59.8053 70.8026 59.9709 70.9824 59.9676C73.408 59.9622 75.8355 59.9784 78.2611 59.9371C79.2647 59.9209 80.2486 59.7108 81.1517 59.2297C82.5288 58.4971 83.1501 57.2475 83.414 55.7932C83.5397 55.0984 83.5935 54.3802 83.5971 53.6728C83.6151 50.2651 83.6043 46.8591 83.6043 43.4514C83.6043 43.0402 83.6043 43.0402 84.0298 43.0402C84.9796 43.0402 85.9294 43.0474 86.8792 43.0366C87.109 43.033 87.179 43.0995 87.179 43.3329C87.17 47.0907 87.2095 50.8486 87.1521 54.6064C87.1198 56.6478 86.6242 58.5923 85.3405 60.2531C84.3458 61.5404 83.0477 62.3932 81.5 62.8852C80.3671 63.2443 79.2019 63.361 78.0223 63.361C66.4794 63.3628 54.9366 63.3484 43.3955 63.3753C41.3344 63.3807 39.5048 62.7792 37.8063 61.6804C36.7964 61.0272 35.9093 60.2542 35.1719 59.3322C34.6577 58.6892 33.6679 58.6412 33.1418 59.2746C31.6157 61.1095 29.7341 62.4471 27.4593 63.185C25.7913 63.7272 24.0749 63.9086 22.3315 63.6375C17.4784 62.8816 14.1282 60.1417 12.3902 55.6298C10.8263 51.5703 11.523 47.6994 14.2359 44.2773C15.99 42.0653 18.3043 40.6343 21.0513 39.9898C24.0282 39.2914 26.8901 39.6882 29.5886 41.1478C32.2782 42.6021 34.2262 44.7154 35.3089 47.5952C35.8727 49.0944 36.0773 50.6511 35.993 52.2436C35.878 54.3748 36.6716 56.1756 38.011 57.7628C38.7651 58.6569 39.67 59.3895 40.8209 59.709C41.39 59.867 41.9969 59.9568 42.5876 59.9586C50.6293 59.9748 58.6729 59.9694 66.7146 59.9694C66.8066 59.9694 66.8976 59.9694 66.9754 59.9694C67.0332 59.9694 67.124 59.9571 67.124 59.8994C67.0791 57.8005 67.3718 55.6747 66.8313 53.61C66.0378 50.5685 64.2818 48.2649 61.4091 46.8807C60.1039 46.2523 58.7232 45.9722 57.2778 45.974C53.9329 45.9758 50.588 45.974 47.2432 45.974C46.9643 45.974 46.8248 45.8321 46.8248 45.5485C46.8248 45.0942 46.8087 44.6382 46.8356 44.1857C46.8464 44.0187 46.9182 43.8194 47.0313 43.7009C50.8538 39.7187 54.687 35.7472 58.5167 31.7721C60.1918 30.0341 61.8616 28.2907 63.5403 26.5563C63.6301 26.4648 63.7791 26.3786 63.9012 26.3786C65.3663 26.366 66.8331 26.3696 68.3 26.3696C68.3491 26.3696 68.3982 26.3799 68.5193 26.3954C68.5209 26.3956 68.5211 26.3979 68.5195 26.3983ZM32.2396 51.7068C32.2401 51.7068 32.2405 51.7064 32.2404 51.7059C32.201 51.234 32.2135 50.7495 32.1166 50.2902C31.5277 47.5216 29.998 45.4282 27.5221 44.0493C25.6836 43.0277 23.7301 42.7691 21.6941 43.3113C20.1213 43.7297 18.7747 44.5663 17.6741 45.7549C15.6758 47.913 14.753 50.4374 15.3868 53.3694C15.9577 56.0176 17.4623 58.0501 19.773 59.472C21.6582 60.6319 23.6835 60.9533 25.7985 60.3033C29.5506 59.149 32.2491 55.3772 32.2387 51.7077C32.2387 51.7072 32.2391 51.7068 32.2396 51.7068Z" fill="black"/>
<path d="M77.8732 35.393C76.5212 35.3625 75.4655 34.2637 75.5086 32.9314C75.5517 31.5741 76.6469 30.5507 78.024 30.5848C79.3347 30.6171 80.367 31.7249 80.3383 33.0661C80.3096 34.3875 79.2108 35.4253 77.875 35.393H77.8732Z" fill="black"/>
<path d="M27.2305 35.3923C27.2309 35.3919 27.2306 35.3914 27.2302 35.3914C25.8967 35.3943 24.8363 34.3406 24.8291 33.0052C24.822 31.6605 25.8849 30.5904 27.2332 30.585C28.5816 30.5778 29.6463 31.6389 29.6499 32.9927C29.6535 34.3388 28.5966 35.3871 27.2309 35.3932C27.2304 35.3932 27.2302 35.3926 27.2305 35.3923Z" fill="black"/>
<path d="M85.0803 35.3903C83.7283 35.3956 82.678 34.3651 82.669 33.0239C82.66 31.6576 83.6978 30.5929 85.0462 30.5821C86.3981 30.5731 87.4754 31.6306 87.4826 32.9736C87.4897 34.3274 86.4376 35.3831 85.0785 35.3903H85.0803Z" fill="black"/>
<path d="M20.082 35.3912C18.7192 35.3876 17.6797 34.3409 17.6851 32.9746C17.6905 31.6262 18.757 30.5759 20.1143 30.583C21.4717 30.5902 22.5022 31.6585 22.4968 33.0518C22.4915 34.3481 21.4106 35.3948 20.0838 35.3912H20.082Z" fill="black"/>
<path d="M51.3871 71.1095C51.2541 71.1129 51.1519 70.9924 51.1519 70.8594V69.0907C51.1519 68.0642 52.0309 67.1345 53.0389 67.3283C54.0461 67.5222 54.5973 68.5672 54.3747 69.666C54.2095 70.4775 53.5362 71.0808 52.836 71.07C52.353 71.0628 51.87 71.097 51.3871 71.1095ZM51.5657 70.6687C51.5654 70.6684 51.5656 70.6678 51.5661 70.6678C51.9067 70.6679 52.2133 70.675 52.5218 70.6678C53.7463 70.6337 54.3908 69.4595 53.7732 68.393C53.5 67.9209 52.9152 67.6368 52.2672 67.6212C51.8485 67.6111 51.5666 67.9987 51.5666 68.4175V70.6684C51.5666 70.6688 51.566 70.6691 51.5657 70.6687Z" fill="black"/>
<path d="M68.7021 69.3507C68.7022 69.3506 68.7024 69.3507 68.7024 69.3509C68.7024 69.8463 68.6988 70.3398 68.7024 70.8352C68.7024 70.995 68.697 71.1171 68.4816 71.1153C68.2625 71.1135 68.2661 70.9824 68.2661 70.828C68.2661 69.7238 68.2697 68.6197 68.2607 67.5155C68.2607 67.3018 68.329 67.2192 68.5444 67.2282C68.9161 67.2444 69.2877 67.2336 69.6576 67.2497C70.2537 67.2749 70.6505 67.6106 70.6918 68.1098C70.7474 68.7795 70.4835 69.1385 69.8282 69.2858C69.6578 69.3249 69.5752 69.5175 69.6816 69.6563C69.8829 69.9189 70.0826 70.1793 70.2841 70.4423C70.5147 70.7432 70.2859 71.1794 70.0652 70.8711C69.7366 70.4097 69.3811 69.9662 69.0292 69.521C68.9623 69.4365 68.8679 69.3745 68.7847 69.3027C68.7817 69.3001 68.7773 69.2999 68.774 69.3021C68.7497 69.3184 68.7268 69.3347 68.7023 69.3511C68.7021 69.3512 68.7019 69.3509 68.7021 69.3507ZM68.7132 68.2854C68.7132 68.6349 69.0084 68.9211 69.3573 68.9003C69.5127 68.891 69.6661 68.8771 69.8174 68.8513C70.0939 68.8046 70.2519 68.5855 70.2591 68.2947C70.2644 68.0415 70.1801 67.7848 69.9215 67.7345C69.7388 67.6995 69.5529 67.6815 69.3654 67.6692C69.0135 67.6462 68.7132 67.9328 68.7132 68.2854Z" fill="black"/>
<path d="M46.0225 71.0741V67.4473C46.0225 67.3373 46.1117 67.248 46.2218 67.248C46.3318 67.248 46.4211 67.3373 46.4219 67.4473C46.4248 67.7979 46.4323 68.1493 46.4157 68.4995C46.4031 68.7652 46.5018 68.8352 46.7514 68.8262C47.1841 68.8083 47.6186 68.8119 48.0513 68.8262C48.2721 68.8334 48.3422 68.749 48.335 68.5408C48.3242 68.2212 48.3314 67.9016 48.3332 67.5802C48.3332 67.2269 48.7408 67.5267 48.7408 67.88V70.3782C48.7408 70.7781 48.3332 71.1832 48.3332 70.7833C48.3332 70.3703 48.3296 69.9574 48.3386 69.5444C48.3422 69.3433 48.2919 69.2428 48.0621 69.2518C47.6078 69.2679 47.1536 69.2643 46.6993 69.2518C46.4875 69.2464 46.4067 69.311 46.4139 69.5336C46.43 69.9556 46.4031 70.3811 46.4246 70.803C46.4408 71.1112 46.3067 71.1583 46.0242 71.0764C46.0232 71.0761 46.0225 71.0752 46.0225 71.0741Z" fill="black"/>
<path d="M65.828 70.6776C65.828 70.6786 65.8288 70.6794 65.8298 70.6794H66.837C67.2499 70.6794 67.6934 71.1099 67.2805 71.1121C66.7347 71.1139 66.1871 71.1067 65.6412 71.1175C65.4437 71.1211 65.3647 71.0528 65.3647 70.8517C65.3701 69.7278 65.3719 68.6039 65.3647 67.4799C65.3647 67.2896 65.4348 67.2268 65.6179 67.2286C66.1745 67.2357 66.7311 67.2286 67.2877 67.2286C67.7035 67.2286 67.271 67.6523 66.8552 67.6523H66.4061C66.0868 67.6523 65.828 67.9111 65.828 68.2304C65.828 68.5497 66.0868 68.8085 66.4061 68.8085H67.3855C67.4911 68.8085 67.5767 68.8941 67.5767 68.9997C67.5767 69.1054 67.4911 69.191 67.3855 69.191H66.7023C66.2194 69.191 65.828 69.5824 65.828 70.0653V70.6776Z" fill="black"/>
<path d="M34.5118 67.2266C34.5129 67.2266 34.5139 67.2272 34.5144 67.2282C35.0066 68.281 35.4975 69.3326 35.9944 70.3951C36.161 70.7514 35.8435 71.204 35.7219 70.83C35.6914 70.733 35.6178 70.6469 35.5945 70.5499C35.4437 69.9395 35.0415 69.8443 34.458 69.8317C33.8367 69.8192 33.4364 69.9484 33.2855 70.5804C33.2676 70.6594 33.2137 70.7295 33.1796 70.8031C33.0113 71.1601 32.7351 70.7195 32.9037 70.3626C33.3812 69.352 33.8568 68.3469 34.3324 67.342C34.3652 67.2726 34.4351 67.2299 34.5118 67.2266ZM34.8005 68.8718C34.6623 68.578 34.2323 68.5843 34.0938 68.8778C33.9735 69.1325 34.1668 69.4098 34.4485 69.4098C34.7299 69.4098 34.9202 69.1265 34.8005 68.8718Z" fill="black"/>
<path d="M56.3031 69.1994C55.8975 69.1994 55.5687 69.5282 55.5687 69.9337C55.5687 70.3393 55.8975 70.6681 56.3031 70.6681H56.5449C56.9657 70.6681 57.4205 71.1094 56.9997 71.1116C55.9754 71.1116 55.145 70.2812 55.145 69.2569V69.1725C55.145 68.1016 56.0133 67.2211 57.084 67.2401C57.1236 67.2408 57.1631 67.2416 57.2026 67.2424C57.2564 67.2424 57.357 67.3842 57.348 67.4453C57.3354 67.5225 57.2331 67.641 57.1649 67.6428C56.7214 67.6607 56.2779 67.6625 55.8345 67.6482C55.6154 67.641 55.5418 67.7182 55.5508 67.9318C55.5723 68.4094 55.9419 68.7972 56.4199 68.7972H57.102C57.2131 68.7972 57.3031 68.8873 57.3031 68.9983C57.3031 69.1094 57.2131 69.1994 57.102 69.1994H56.3031Z" fill="black"/>
<path d="M41.7134 67.4187C41.9358 67.1694 42.1167 67.5952 41.8734 67.8242C41.6669 68.0186 41.4626 68.2108 41.2589 68.4027C40.9232 68.7191 40.9075 69.2473 41.2232 69.5836C41.4987 69.8771 41.7735 70.1697 42.0516 70.4657C42.3031 70.7334 42.1031 71.1686 41.8606 70.8929C41.72 70.7343 41.5768 70.5781 41.4305 70.4216C41.0724 70.0387 40.4261 70.2986 40.4261 70.8229C40.4261 70.9665 40.4476 71.1119 40.2178 71.1155C39.9826 71.1173 39.9844 70.988 39.9844 70.8175C39.988 69.7043 39.9844 68.5911 39.9862 67.478C39.9862 67.4666 39.9865 67.4552 39.987 67.4437C39.9918 67.3349 40.0879 67.2518 40.1969 67.2518C40.3125 67.2518 40.4063 67.3455 40.4063 67.4612V67.8068C40.4063 68.1241 40.7851 68.2926 41.0185 68.0777C41.252 67.8604 41.5015 67.6557 41.7134 67.4187Z" fill="black"/>
<path d="M36.8802 67.2566C37.0954 67.2566 37.2698 67.431 37.2698 67.6462V67.6779C37.2698 68.0459 37.7124 68.2414 37.9818 67.9908C38.1578 67.8271 38.3251 67.6664 38.4853 67.499C38.6936 67.2817 38.918 67.2081 39.1981 67.2332C39.2587 67.2373 39.2618 67.332 39.2176 67.3735C38.8987 67.6731 38.5829 67.9691 38.264 68.2679C37.8515 68.6544 37.8304 69.3019 38.2161 69.7151C38.4445 69.9596 38.6733 70.2047 38.9044 70.4522C39.1595 70.7254 38.9577 71.1576 38.7098 70.878C38.5728 70.7217 38.433 70.5682 38.2895 70.414C37.9349 70.0329 37.2978 70.291 37.2896 70.8115C37.2896 70.9049 37.2716 71.0342 37.2106 71.0844C37.0705 71.2011 36.8479 71.079 36.8479 70.8941C36.8461 69.7181 36.8479 68.5403 36.8497 67.3643C36.8497 67.3362 36.8634 67.3082 36.8758 67.2601C36.8763 67.258 36.8781 67.2566 36.8802 67.2566Z" fill="black"/>
<path d="M45.3715 68.7964C45.3721 68.797 45.3724 68.7978 45.3724 68.7986V68.9121C45.3724 69.0649 45.2486 69.1887 45.0958 69.1887H44.3356C43.9236 69.1887 43.5896 69.5227 43.5896 69.9347C43.5896 70.3467 43.9236 70.6807 44.3356 70.6807C44.5778 70.6807 44.82 70.6807 45.0618 70.6807C45.1444 70.6807 45.2521 70.6628 45.3006 70.7059C45.3563 70.7561 45.3868 70.8728 45.3706 70.9465C45.3563 71.0093 45.2611 71.0991 45.2001 71.1009C45.1651 71.1014 45.13 71.102 45.095 71.1024C44.0316 71.1173 43.1694 70.2459 43.1694 69.1824V68.4523C43.1694 67.7921 43.7047 67.2568 44.3649 67.2568H44.7051C45.0863 67.2568 45.4556 67.6461 45.0744 67.65C44.7688 67.6523 44.4632 67.6517 44.1533 67.651C43.837 67.6503 43.5806 67.9065 43.5806 68.2228C43.5806 68.5391 43.837 68.7955 44.1533 68.7955H45.3694C45.3702 68.7955 45.371 68.7958 45.3715 68.7964Z" fill="black"/>
<path d="M63.0506 70.1407C63.0514 70.1414 63.0527 70.1412 63.0531 70.1402C63.4172 69.3115 63.7509 68.5509 64.0828 67.792C64.1241 67.6969 64.1815 67.6071 64.2049 67.5083C64.2915 67.1401 64.6388 67.5892 64.4877 67.9361C64.0317 68.9827 63.5807 70.0194 63.1298 71.056C63.1165 71.0866 63.0862 71.1062 63.0528 71.1066C63.0179 71.107 62.9856 71.0869 62.9717 71.0548C62.5317 70.0339 62.0917 69.0129 61.6507 67.9891C61.4856 67.6058 61.797 67.1746 61.9516 67.5622C62.2855 68.4024 62.6589 69.2282 63.0503 70.1402C63.0504 70.1404 63.0505 70.1405 63.0506 70.1407Z" fill="black"/>
<path d="M71.187 67.273C71.187 67.2733 71.1872 67.2735 71.1875 67.2734C71.4924 67.1999 71.6934 67.2162 71.8477 67.5159C71.9247 67.6654 72.0093 67.811 72.0991 67.9571C72.3337 68.339 72.8985 68.3322 73.1333 67.9504C73.2194 67.8103 73.3182 67.6739 73.3864 67.5249C73.4686 67.3475 73.5807 67.2475 73.7416 67.2295C73.8939 67.2125 73.9809 67.3966 73.8999 67.5267C73.6198 67.9845 73.3433 68.4423 73.0525 68.893C72.9017 69.1264 72.8316 69.367 72.846 69.6489C72.8657 70.0403 72.8496 70.4335 72.8514 70.8249C72.8514 70.9793 72.8514 71.1121 72.6341 71.1139C72.4241 71.1157 72.3953 71.0026 72.4079 70.8374C72.4133 70.7764 72.3989 70.7118 72.4097 70.6525C72.5821 69.6273 72.2248 68.7619 71.6179 67.9647C71.4584 67.755 71.3364 67.5166 71.1877 67.2728C71.1875 67.2725 71.187 67.2727 71.187 67.273Z" fill="black"/>
<path d="M31.535 67.638C31.536 67.638 31.5368 67.6388 31.5368 67.6398C31.5368 68.3429 31.5368 68.9905 31.5368 69.6381C31.5368 70.0295 31.5332 70.4227 31.5368 70.8141C31.5386 70.9793 31.5475 71.1193 31.3087 71.1157C31.061 71.1121 31.0933 70.9523 31.0933 70.7979C31.0933 69.8989 31.0933 68.9998 31.0933 68.0734C31.0933 67.8478 30.9104 67.6649 30.6848 67.6649H30.4828C30.3688 67.6649 30.2764 67.5725 30.2764 67.4584C30.2764 67.3444 30.3688 67.252 30.4828 67.252H32.193C32.2996 67.252 32.386 67.3384 32.386 67.445C32.386 67.5516 32.2996 67.638 32.193 67.638H31.535Z" fill="black"/>
<path d="M58.393 70.6807C58.8293 70.6807 59.2081 70.6807 59.587 70.6807C59.7342 70.6807 59.876 70.67 59.876 70.8944C59.876 71.1134 59.7503 71.1152 59.5941 71.1134C59.1309 71.1098 58.6659 71.108 58.2027 71.1134C58.0393 71.1134 57.9585 71.065 57.9585 70.8854C57.9639 69.7202 57.9621 68.5549 57.9639 67.3897C57.9639 67.31 58.0492 67.2568 58.1289 67.2568H58.1697C58.292 67.2568 58.3912 67.356 58.3912 67.4784V70.6789C58.3912 70.6799 58.392 70.6807 58.393 70.6807Z" fill="black"/>
<path d="M60.3931 71.0689V67.4556C60.3931 67.342 60.4851 67.25 60.5986 67.25C60.7122 67.25 60.8042 67.342 60.8042 67.4556C60.8042 67.5035 60.8042 67.5502 60.8042 67.5965C60.8006 68.6576 60.7899 69.7187 60.8006 70.778C60.8042 71.0809 60.7058 71.1727 60.3948 71.0677C60.394 71.0674 60.3931 71.068 60.3931 71.0689Z" fill="black"/>
<path d="M32.2413 51.7065C32.2408 51.7065 32.2405 51.7069 32.2405 51.7073C32.2508 55.3769 29.5524 59.1486 25.8002 60.303C23.6852 60.9548 21.6582 60.6334 19.7747 59.4717C17.464 58.0497 15.9594 56.0155 15.3885 53.3691C14.7565 50.4371 15.6776 47.9127 17.6759 45.7546C18.7765 44.566 20.1231 43.7294 21.6959 43.311C23.7301 42.7688 25.6853 43.0273 27.5238 44.049C30.0015 45.426 31.5295 47.5213 32.1184 50.2899C32.217 50.7492 32.2046 51.2319 32.2422 51.7055C32.2422 51.706 32.2418 51.7065 32.2413 51.7065ZM21.7336 44.8282C21.7326 44.8282 21.7318 44.829 21.7318 44.83C21.7318 45.005 21.7318 45.1266 21.7318 45.2483C21.7318 47.7673 21.7354 50.2863 21.7246 52.8053C21.7246 53.0584 21.8108 53.1895 22.0208 53.3116C23.669 54.2704 25.3119 55.2417 26.9565 56.2112C27.4113 56.4793 27.7704 56.392 28.0337 55.9491C28.2384 55.6044 28.2402 55.6008 27.8973 55.3961C26.3299 54.4607 24.7625 53.5235 23.1897 52.5988C22.985 52.4785 22.9132 52.3457 22.915 52.1087C22.9239 49.9721 22.9203 47.8337 22.9203 45.6972C22.9203 45.4799 22.9365 45.2609 22.9114 45.0472C22.9024 44.9682 22.7983 44.8425 22.7318 44.8389C22.4158 44.8174 22.0962 44.8282 21.7336 44.8282Z" fill="#FEDE01"/>
<path d="M51.5639 70.6674C51.5642 70.6677 51.5648 70.6674 51.5648 70.667V68.4161C51.5648 67.9973 51.8467 67.6098 52.2654 67.6198C52.914 67.6354 53.4995 67.9194 53.7714 68.3916C54.389 69.4581 53.7444 70.6323 52.52 70.6665C52.2133 70.6754 51.9049 70.6665 51.5643 70.6665C51.5638 70.6665 51.5636 70.667 51.5639 70.6674Z" fill="#FEDE01"/>
<path d="M69.3571 68.9C69.0082 68.9207 68.7129 68.6345 68.7129 68.285C68.7129 67.9324 69.0131 67.6458 69.365 67.6688C69.5529 67.6811 69.7388 67.699 69.9212 67.7342C70.1798 67.7844 70.2641 68.0394 70.2588 68.2944C70.2516 68.5852 70.0936 68.8043 69.8171 68.8509C69.6659 68.8768 69.5124 68.8907 69.3571 68.9Z" fill="#FEDE01"/>
<path d="M34.0939 68.8763C34.2325 68.5826 34.6622 68.5772 34.8004 68.871C34.9202 69.1259 34.7298 69.4096 34.4481 69.4096C34.1664 69.4096 33.9738 69.131 34.0939 68.8763Z" fill="#FEDE01"/>
<path d="M21.7321 44.8286C22.0948 44.8286 22.4144 44.816 22.7304 44.8393C22.7986 44.8447 22.901 44.9686 22.91 45.0476C22.9351 45.2613 22.9189 45.4803 22.9189 45.6976C22.9189 47.8341 22.9225 49.9725 22.9135 52.1091C22.9135 52.3461 22.9836 52.4789 23.1882 52.5992C24.761 53.5239 26.3285 54.4611 27.8959 55.3965C28.2388 55.6012 28.237 55.6048 28.0323 55.9495C27.7678 56.3936 27.4087 56.4809 26.9551 56.2116C25.3122 55.2421 23.6694 54.2726 22.0194 53.312C21.8094 53.1899 21.7214 53.0588 21.7232 52.8057C21.7339 50.2867 21.7304 47.7677 21.7304 45.2487C21.7304 45.127 21.7304 45.0054 21.7304 44.8304C21.7304 44.8294 21.7312 44.8286 21.7321 44.8286Z" fill="black"/>
</svg>
